<?xml version="1.0" encoding="UTF-8"?>
<svg version="1.1" viewBox="0 0 1024 1024" width="1024" height="1024" xmlns="http://www.w3.org/2000/svg">
<path transform="translate(249,340)" d="m0 0h69l5 3 4 8 26 70 18 48 21 57 20 54 18 49 15 41 5 14v6l-3 3h-61l-6-4-7-18-14-39-2-4-145-1-3 10-18 50-4 5-2 1h-60l-4-3v-7l17-48 22-62 16-45 19-53 11-31 20-55 14-39 3-6 3-3zm33 88-4 8-19 53-22 61-4 11v3l2 1h99l1-4-20-54-18-49-10-27-2-3z" fill="#010101"/>
<path transform="translate(658,289)" d="m0 0h20l11 3 12 6 7 5 4-1 10-7 9-4 9-2h18l12 3 12 6 8 6 9 12 5 12 2 7 9 4 9 6 8 9 6 13 2 9v11l-3 13-5 9-2 4 9 10 7 12 4 15v17l-3 12-4 9-6 9-5 6-8 6-5 3-2 14-5 13-7 9-9 9-14 8-14 4-6 1h-13l-15-3-12-6-11-9-4-1-12 10-13 6-12 3h-20l-13-3-15-8-9-8-8-10-6-13-3-17-8-6-9-9-8-16-3-12v-19l4-15 6-11 6-8-2-6-4-9-1-5v-20l4-13 6-10 9-10 11-7 6-2 5-13 6-10 5-6 12-9 12-5zm3 27-9 4-7 8-2 5v9l3 6 6 5 13 5 4 5 1 2v8l-4 6-10 2-14-3-9-5-7-6-5-6-6 2-8 9-2 6v11l3 6 3 3 9-1 4-1h18l6 3 4 6v10l-4 6-4 2-22 1-10 4-8 7-6 10-2 8v11l3 10 6 7 7 1 8-6 12-5 5-1h11l7 3 4 5 1 8-3 6-5 3-15 2-6 4-3 3-2 8 1 9 4 8 7 7 8 4 9 2h9l10-3 9-6 6-7 5-12 1-6v-43l-4-9-7-6-7-2-8 1-6 4-3 1h-8l-6-4-2-4v-9l4-6 8-5 10-3h16l11 1 2-2v-84l-4-11-9-8-9-3zm81 0-9 4-5 4-5 10-1 6v92l4 4 7-1 8-3 6-1h11l7 3 4 6v8l-3 5v2l-9 3h-7l-11 3-7 5-7 11-2 6-1 7v18l2 10 5 10 7 7 10 5 4 1h13l11-4 8-6 5-7 2-6v-11l-4-6-8-4-7-3-3-4-1-6 2-7 6-5 10-1 9 3 11 7 2 2 5-1 5-5 4-6 2-8-1-12-6-12-9-8-8-4-19-3-13-5-11-8-8-8-8-13-3-9-1-5v-10l3-6 6-4h8l6 4 4 6 3 14 6 9 9 7 10 3 10-1 6-4 4-5 1-3v-9l-4-8-5-5-7-4-9-2-6-4-3-5-2-15-4-8-8-7-8-3z" fill="#060606"/>
<path transform="translate(698,210)" d="m0 0h17l27 3 25 6 18 6 25 12 19 12 16 13 12 11 12 12 11 14 7 10 9 15 8 16 8 22 5 21 3 20 1 16v12l-2 24-5 25-8 24-12 25-10 16-10 13-12 14-14 14-14 11-14 10-18 10-21 9-19 6-20 4-21 2h-25l-25-3-23-6-20-8-5-4-1-2v-9l5-12 5-4 6-1 27 8 14 3 16 2h22l18-2 25-6 19-7 23-12 14-10 15-14 10-10 10-13 9-14 8-15 8-21 5-18 3-21v-29l-3-20-5-19-6-16-8-16-10-17-11-14-9-10-12-11-15-11-15-9-21-10-19-6-21-4-10-1h-23l-18 2-22 5-18 6-19 9-16 10-14 11-14 12-16 16-5 2h-16l-6-3-2-5 1-6 9-12 12-14 16-16 11-9 15-11 19-11 19-8 21-7 25-5z" fill="#020202"/>
<path transform="translate(492,340)" d="m0 0h50l6 5 1 3v337l-4 6-3 2h-51l-6-4-1-3v-339l5-6z"/>
<path transform="translate(690,244)" d="m0 0h34l20 3 21 6 21 9 19 11 16 12 15 14 11 12 11 16 11 19 10 25 5 20 3 24v18l-2 19-5 22-8 22-12 23-10 14-9 11-11 12-11 9-10 8-13 8-16 8-18 7-24 6-15 2h-32l-24-4-10-3 4-1 18 4 16 2h22l18-2 25-6 19-7 23-12 14-10 15-14 10-10 10-13 9-14 8-15 8-21 5-18 3-21v-29l-3-20-5-19-6-16-8-16-10-17-11-14-9-10-12-11-15-11-15-9-21-10-19-6-21-4-10-1h-23l-18 2-22 5-18 6-19 9-16 10-5 4-2-1 9-7 15-9 17-8 17-6 21-5z" fill="#FEFFFE"/>
<path transform="translate(708,547)" d="m0 0 7 6 1 2-4-2-2-2-4 1-4 2z" fill="#FEFFFE"/>
</svg>
