<?xml version="1.0" encoding="UTF-8"?>
<svg version="1.1" viewBox="0 0 2048 2048" width="512" height="512" xmlns="http://www.w3.org/2000/svg">
<path transform="translate(476,323)" d="m0 0h771l33 2 28 4 24 6 27 9 17 7 16 8 18 10 18 12 17 13 14 12 13 12 14 15 9 11 12 16 14 22 11 20 10 23 9 25 8 32 4 27 1 12 1 26v1059l-1 44-2 21-4 23-6 24-8 24-12 28-13 23-10 16-13 17-9 11-9 10-6 7-8 7-7 7-14 11-11 9-20 13-16 9-16 8-15 7-25 9-27 7-35 7h-832l-20-4-24-5-24-7-24-9-27-13-20-12-16-11-16-13-10-9-8-7-15-15-9-11-7-8-13-18-11-18-12-22-12-29-7-21-6-26-4-26-2-28v-1104l2-25 4-26 7-28 8-24 11-25 11-21 15-23 9-12 13-16 11-12 13-13 11-9 12-10 20-14 15-9 23-12 23-10 18-6 22-6 21-4 26-3zm5 161-19 1-18 3-20 6-16 7-14 8-12 9-13 11-5 5v2h-2l-11 14-10 15-9 19-7 21-3 17-1 9-1 47v1039l1 25 3 21 5 17 6 15 9 17 10 14 12 14 12 11 17 12 14 8 19 8 19 5 22 3h787l21-3 21-6 16-7 15-8 14-10 11-10 12-12 12-16 9-16 8-19 5-19 3-21v-1107l-3-22-5-19-8-19-9-16-10-14-12-13-12-11-16-11-16-9-21-8-16-4-16-2-21-1z"/>
<path transform="translate(658)" d="m0 0h945l1 1 32 6 23 6 25 9 26 12 18 10 17 11 19 14 15 13 13 12 14 15 9 11 14 19 12 19 11 20 10 23 9 25 8 32 4 28 1 11 1 26v1165l-1 51-4 16-8 17-9 11-7 7-14 9-11 5-11 3-7 1h-20l-14-3-12-5-11-7-12-11-9-12-7-14-4-16-1-13-1-1217-2-18-4-17-7-20-10-19-12-17-12-13-11-10-16-11-16-9-21-8-16-4-16-2-22-1-890-1-16-3-14-6-14-10-9-9-7-10-7-14-4-14-1-9v-9l2-14 4-13 8-15 11-13 10-8 12-7z"/>
<path transform="translate(439,2047)" d="m0 0 4 1z"/>
<path transform="translate(1604)" d="m0 0 3 1z"/>
</svg>
