<?xml version="1.0" encoding="UTF-8"?>
<svg version="1.1" viewBox="0 0 2048 1303" width="800" height="509" xmlns="http://www.w3.org/2000/svg">
<path transform="translate(1116,54)" d="m0 0h841l11 3 10 6 7 7 6 10 3 14v1117l-2 9-6 11-8 8-8 5-14 4-11 1h-1829l-26-1-12-3-9-6-9-10-5-12-2-17v-146l1-954 2-15 7-14 9-9 10-5 9-2z" fill="#EAECEE"/>
<path transform="translate(194,403)" d="m0 0h200l10 2 12 6 9 9 6 11 2 11v157l-2 10-6 12-5 6-11 7-6 2-8 1h-196l-14-1-9-3-9-6-8-9-4-8-2-9v-161l3-12 5-9 9-9 10-5z" fill="#AFB5BC"/>
<path transform="translate(1953,1156)" d="m0 0 2 1v4h2l-1-4 3-1 3 5h5l-1 6-4-2h2v-2l-6 1 1 2h2l2 5-1 4 7 3v5l-1 1-2 8v8l-5 12-6 4h-2v2l-6 3-7 1-3 2-5-1v-4l-9-1v-2l-4 1-3-3v-1l11-1 9-8h3l3-5 4-4 1-6 2-10-1-6 3-1-1-3 2-6h2v-5l-2-1z" fill="#AFB5BC"/>
</svg>
