<?xml version="1.0" encoding="UTF-8"?>
<svg version="1.1" viewBox="0 0 1024 1024" width="1024" height="1024" xmlns="http://www.w3.org/2000/svg">
<path transform="translate(508,294)" d="m0 0h6l202 202 5 4 5 5 1 3 4 2 42 42 4 8v298l-4 8-6 5-7 3h-163l-5-5-1-232-3-6-6-5-3-1h-135l-6 3-5 6-1 3-1 231-4 4h-165l-8-4-5-6-3-8v-294l5-10 99-99h2l2-4 5-4 4-5 5-5h2v-2l8-7 67-67 11-12 3-3h2l2-4 43-43z"/>
<path transform="translate(506,148)" d="m0 0h12l8 4 72 72 8 7 53 53 1-67 4-8 8-7 6-2h66l9 5 6 7 2 7 1 170 124 124 2 5v11l-4 7-31 31-8 4h-11l-8-4-164-164-2-1v-2l-4-2-5-5v-2l-3-1-7-8-127-127-7 6-42 42-8 7-7 8h-2l-2 4-29 29h-2l-2 4-215 215-7 3h-10l-10-5-30-30-4-9v-9l5-10 245-245 3-4h2v-2h2l2-4 51-51 7-8 33-33 7-8 9-6z"/>
</svg>
