<?xml version="1.0" encoding="UTF-8"?>
<svg version="1.1" viewBox="0 0 1024 1024" width="1024" height="1024" xmlns="http://www.w3.org/2000/svg">
<path transform="translate(478,93)" d="m0 0h68v64l16 2 24 6 20 7 25 12 16 10 13 10 13 12 10 10 12 16 10 17 8 19 5 17 3 16 1 10v27l-1 1h-98l-4-24-6-18-10-19-9-12-11-11-14-10-15-7-8-3 1 198 29 11 40 16 22 10 16 9 12 8 13 10 10 9 13 13 13 18 9 16 8 20 5 19 3 21v35l-4 24-6 20-6 15-10 19-8 12-10 13-12 13-10 9-16 12-19 11-20 9-19 6-27 6-15 2h-12v78h-68v-78l-11-1-25-5-24-7-20-8-21-11-16-11-14-12-14-14-13-17-8-13-11-21-9-24-6-27-2-16v-23l1-1h92l4 24 8 24 8 16 8 12 9 11 12 12 10 7 14 8 15 6 13 4v-215l-9-2-42-16-23-10-16-8-14-8-14-10-15-14-8-8-12-16-9-16-8-19-5-18-3-16-1-10v-31l3-21 6-23 8-19 8-15 10-14 9-11 17-17 13-10 15-10 19-10 23-9 22-6 19-3h7zm-4 150-15 5-15 8-13 10-8 8-7 10-8 16-4 16-1 8v16l3 16 6 15 9 14 11 12 14 10 16 8 13 5h3v-177zm72 305v196l11-2 16-5 16-8 11-7 12-11 8-10 8-14 6-17 2-12v-22l-3-15-5-13-6-11-8-10-11-11-14-10-19-10-19-7z"/>
</svg>
