<?xml version="1.0" encoding="UTF-8"?>
<svg version="1.1" viewBox="0 0 1600 1600" width="400" height="400" xmlns="http://www.w3.org/2000/svg">
<path transform="translate(923,583)" d="m0 0h44l2 6-1 42h47l2 2v94h46v-47l1-1 47-1v-93l2-2h46l2 2v14l-1 32h47v-46l4-2h188l2 6-1 43h-48l1 6-1 42h-48l1 7-1 40h47l2 2-1 46h47l2 3-1 46h-48l1 7v39l-1 2h-48l1 7-1 40h47l2 2-1 47h-47v94l-1 2h-48l1 7-1 40h143l2 5-1 44-95 1-1 46h95l2 3-1 46h-47l-1 95h47l2 3-1 46h-144l-1-1v-47h-143l-1-1-1-46h-33l-13-1 1 7-1 41h-48l-1-1v-46l-47-1-1-1-1-46-45-1-1 96-4 1-44-1-1-2v-94h-47l-1-2v-45l-46-1v25l-1 70h47l2 3v92l-1 2h-48l-1-1-1-46h-45v45l-1 2h-48l-1-1v-95l-6 1h-29l-12-1 1 2v92l-1 2h-48l-1-2v-93l2-2 46-1-1-93-46-1-1-1v-95l1-1h47v-46l2-2h46v-95l7-1 41-1-1-93h-25l-21-1 1 4-1 44h-48v48h-49v-48h-95l-1-1v-47l7-1h89v-46l2-2h46l2 2v14l-1 32h47v-47l3-1h45v-47l5-1h43v-46l2-2h46l2 2v14l-1 32h47v-47l3-1h18l27-1v-140l1-2zm334 49-1 22v25h47v-47zm-145 48v47h47v-47zm-192 48v48h47l1 6v89h47v-143zm289 0-1 9v38l44 1 3-1v-47zm-337 48v144h-96v48h47l1 1v47h47l1 1v47h-48v48h-48v47l47 1 1 1v47l143-1v-143h-47v-48l47-1v-47h-48l1-192zm288 0v47h47v-47zm-432 48v47h47v-47zm337 0-1 2v94h-47l-1 15v32h95l1-94 1-1 47-1-1-47zm143 0v48l95-1v-47zm-48 48v95h47v-95zm-432 96v47h48l-1-47zm48 48v47h48l-1-47zm241 0-1 2v141h143v-143zm192 0-1 23v24h47v-47zm-576 144-1 2v45h47v-47zm576 0-1 2v45h47v-47zm-48 48-1 23v72h143v-47l-95-1-1-47zm-144 48-1 2v45h47v-47z" fill="#050505"/>
<path transform="translate(201,583)" d="m0 0h94l2 2-1 47 3-1h44l2 2-1 46h47v-94l2-2h142l2 3-1 46 3-1h44l2 3-1 45h143l2 3-1 46h-48l1 6-1 42h-48l-1-1v-47h-143l1 7-1 41-7 1-41-1-1-2-1-45-46-1 1 6-1 42-47 1v30l-1 161h-48l-1-2v-189l2-2 46-1v-46l-8 1h-86v141l-1 2h-48l-1-1v-286zm48 49-1 2v45h47l1-47zm192 0-1 2v94l47-1 1-47h45l2-1 1-47z" fill="#060606"/>
<path transform="translate(201,1063)" d="m0 0h335l1 2v333l-1 2h-336l-1-2v-333zm48 49-1 15v224h239v-239z" fill="#050505"/>
<path transform="translate(201,199)" d="m0 0h334l2 2-1 335h-336l-1-1v-334zm48 49-1 11v228l236 1 3-1v-239z" fill="#050505"/>
<path transform="translate(1065,199)" d="m0 0h333l3 3v332l-1 2h-336l-1-1v-334zm48 49-1 15v224l236 1 3-1v-239z" fill="#050505"/>
<path transform="translate(585,199)" d="m0 0h45l3 3-1 93h47l2 2-1 46h47l2 3-1 189 47-1v-46l1-1h47l2 2-1 47h-48l1 7-1 41 3-1 92-1v-94l1-1h47l2 3-1 94-2 1h-17l-29-1 1 7-1 89h-48l-1-1v-47h-47l-1-1-1-46-46-1v48h-48l-1-1v-143l-3 1h-43l-1 47h-48l-1-1v-95l1-1h47v-47l-44 1-4-2v-190z" fill="#040404"/>
<path transform="translate(827,199)" d="m0 0h188l2 3-1 46-180 1h-11l-1 94 47-1v-46l2-1h46l2 2v14l-1 33 2-1h45v-47l1-1h47l2 3-1 46h-48l1 4-1 43h47l2 2v141l-1 2h-48l-1-1v-95h-96l-1-47-46-1v48h-48l-1-1v-143h-47l-1-2v-45l2-2h94v-46zm45 145v47h47v-47z" fill="#060606"/>
<path transform="translate(1161,295)" d="m0 0h142l2 3v140l-1 2h-144l-1-1v-142z" fill="#030303"/>
<path transform="translate(297,1159)" d="m0 0h142l2 3v140l-1 2h-144l-1-1v-142z" fill="#030303"/>
<path transform="translate(297,295)" d="m0 0h142l2 3v140l-1 2h-144l-1-1v-142z" fill="#030303"/>
<path transform="translate(872,487)" d="m0 0h47l2 3-1 94-2 1-139-1v-1l92-1v-94z" fill="#0D0D0D"/>
<path transform="translate(201,967)" d="m0 0h94l2 3-1 46h-96l-1-1v-46z" fill="#070707"/>
<path transform="translate(968,295)" d="m0 0h47l2 3-1 46h-94v-1h45v-47z" fill="#0F0F0F"/>
<path transform="translate(776,487)" d="m0 0h47l2 2-1 47h-96v-1l47-1v-46z" fill="#0E0E0E"/>
<path transform="translate(585,1015)" d="m0 0h47l1 2-1 47-7 1-41-1-1-1v-47z" fill="#0B0B0B"/>
<path transform="translate(1065,1063)" d="m0 0h46l2 3-1 46h-48l-1-1v-46z" fill="#0A0A0A"/>
<path transform="translate(923,1351)" d="m0 0h44l2 3-1 46h-48l-1-1v-46z" fill="#090909"/>
<path transform="translate(492,775)" d="m0 0h43l2 2-1 47h-49v-47z" fill="#0A0A0A"/>
<path transform="translate(395,967)" d="m0 0h44l2 3-1 46h-48l-1-1v-46z" fill="#090909"/>
<path transform="translate(392,823)" d="m0 0h47l2 3-1 46h-48l-1-1v-47z" fill="#090909"/>
<path transform="translate(488,967)" d="m0 0h47l2 3-1 46h-48l-1-1v-47z" fill="#090909"/>
</svg>
