<?xml version="1.0" encoding="UTF-8"?>
<svg version="1.1" viewBox="0 0 1024 1024" width="1024" height="1024" xmlns="http://www.w3.org/2000/svg">
<path transform="translate(479,102)" d="m0 0h47l29 3 31 6 24 7 24 10 21 11 15 10 14 11 13 12 9 9 9 11 11 15 11 19 8 17 9 27 5 25 2 23v15l-2 21-5 23-7 21-8 17-11 18-10 13-11 13-11 12-20 20-8 7-14 12-11 9-13 11-21 18-7 8-9 11-8 14-6 15-4 16-3 22-2 24-3 5-4 2h-115l-7-2-3-3-1-4v-11l2-32 3-29 5-24 5-16 7-17 11-18 9-11 11-12 3-4h2v-2l8-7 14-13 11-9 15-13 10-9 8-7 11-11 13-17 8-14 5-11 5-16 3-18v-20l-3-19-5-14-6-12-10-13-8-8-13-9-14-7-19-5-6-1-17-1-23 2-15 4-12 5-11 6-15 12-9 11-7 10-8 16-5 12-6 22-4 27-5 5-3 1h-59l-68-1-5-5v-19l2-22 4-24 6-22 7-20 12-25 10-16 12-16 9-11 9-10 8-7 9-8 18-13 21-12 24-10 22-7 24-5 21-3z"/>
<path transform="translate(493,723)" d="m0 0h27l17 4 12 5 12 7 12 11 9 10 8 13 5 12 3 14v27l-4 17-7 16-10 14-11 11-13 9-15 7-16 4-19 1-17-2-15-5-13-7-9-7-6-5-9-11-8-13-6-16-3-14v-26l3-14 6-15 8-12 9-10 10-9 14-8 16-6z"/>
</svg>
