<?xml version="1.0" encoding="UTF-8"?>
<svg version="1.1" viewBox="0 0 1024 1024" width="1024" height="1024" xmlns="http://www.w3.org/2000/svg">
<path transform="translate(229,159)" d="m0 0h566l6 4 23 46 11 23 26 53 10 21 1 7-3 5-5 3h-704l-6-4-1-2v-8l19-39 11-23 34-70 6-12z"/>
<path transform="translate(187,505)" d="m0 0 6 1 19 7 11 3 1 1v308h339v-269l4-5 4-2h153l6 5 1 2v269h71v-308l7-3 17-5 8-4h4v320h18l7 3 5 4 4 8v10l-4 8-6 5-3 1h-694l-6-3-6-7-2-11 3-9 5-6 7-3h20v-319z"/>
<path transform="translate(154,354)" d="m0 0h716l8 4 4 6 1 5v33l-3 19-6 16-8 13-9 10-10 9-10 6-13 6-17 4h-20l-14-3-13-5-11-7-12-11-9-12-2-5h-2l-2 6-7 9-8 9-11 8-14 7-16 4h-21l-19-5-15-8-12-11-8-9-5-9-6 10-9 10-9 8-14 8-11 4-9 2h-22l-16-4-16-8-9-7-9-9-8-12-8 11-7 8-11 9-16 8-16 4h-20l-17-4-16-8-10-8-8-8-7-10-7-13-3 4-7 12-8 10-11 9-11 7-14 6-14 3h-21l-17-4-16-8-12-9-9-9-10-15-6-14-3-12-1-7v-41l4-8z"/>
<path transform="translate(278,549)" d="m0 0h202l7 6 1 3v140l-4 6-5 3h-199l-7-4-3-8v-135l3-7z"/>
</svg>
